# xmcd
#
# Track frame offsets:
#	750
#	16600
#	34000
#	49938
#	67578
#	82638
#	100583
#	119893
#	134658
#	148483
#	168209
#	185678
#	200483
#	218083
#	234645
#	250900
#	279700
#
# Disc length: 3737 seconds
#
# Revision: 1
# Processed by: cddbd v1.5.2PL0 Copyright (c) Steve Scherf et al.
# Submitted via: audiograbber 1.83.01
#
DISCID=f20e8f11
DTITLE=MELANIE THORNTON - MELANIE THORNTON   READY TO FLY
DYEAR=2007
DGENRE=Pop
TTITLE0=LOVE HOW YOU LOVE ME (Original Radio Version)
TTITLE1=WONDERFUL DREAM (HOLIDAYS ARE COMING) (Radio Version)
TTITLE2=NO TEARS
TTITLE3=HEARTBEAT (Radio Version)
TTITLE4=MAKIN' OOOH OOOH (TALKING ABOUT LOVE) (Brand New Radio Version)
TTITLE5=BACK ON MY FEET AGAIN
TTITLE6=I WISH IT WAS LOVE
TTITLE7=INTOXICATED
TTITLE8=WALK ON BY
TTITLE9=MEMORIES
TTITLE10=IT'S ALRIGHT
TTITLE11=TOO LATE
TTITLE12=I APOLOGIZE
TTITLE13=FOREVER
TTITLE14=LOVE HOW YOU LOVE ME (Chicago Radio Remix)
TTITLE15=HEARTBEAT (Chicago Radio Remix)
TTITLE16=DATA
EXTD=
EXTT0=
EXTT1=
EXTT2=
EXTT3=
EXTT4=
EXTT5=
EXTT6=
EXTT7=
EXTT8=
EXTT9=
EXTT10=
EXTT11=
EXTT12=
EXTT13=
EXTT14=
EXTT15=
EXTT16=
PLAYORDER=
